<svg width="134" height="29" viewBox="0 0 134 29" fill="none" xmlns="http://www.w3.org/2000/svg">
<path d="M119.691 28.8262V9.87876H123.497L123.648 12.8811L122.896 12.654C123.013 12.099 123.297 11.5944 123.748 11.1402C124.198 10.6861 124.766 10.3245 125.45 10.0554C126.151 9.76943 126.886 9.62646 127.654 9.62646C128.789 9.62646 129.799 9.92922 130.683 10.5347C131.568 11.1234 132.261 11.9392 132.762 12.982C133.279 14.008 133.538 15.2022 133.538 16.5646C133.538 17.9102 133.279 19.1044 132.762 20.1472C132.261 21.19 131.56 22.0142 130.658 22.6197C129.774 23.2084 128.755 23.5027 127.604 23.5027C126.853 23.5027 126.135 23.3598 125.45 23.0738C124.766 22.7879 124.19 22.401 123.723 21.9133C123.255 21.4255 122.946 20.8957 122.796 20.3238L123.723 19.9706V28.8262H119.691ZM126.627 20.0967C127.228 20.0967 127.754 19.9538 128.205 19.6678C128.655 19.3651 129.006 18.953 129.256 18.4316C129.507 17.9102 129.632 17.2878 129.632 16.5646C129.632 15.8582 129.507 15.2443 129.256 14.7228C129.006 14.1846 128.655 13.7725 128.205 13.4866C127.771 13.1838 127.245 13.0325 126.627 13.0325C126.01 13.0325 125.475 13.1754 125.025 13.4614C124.574 13.7473 124.223 14.1594 123.973 14.6976C123.723 15.2358 123.597 15.8582 123.597 16.5646C123.597 17.2878 123.723 17.9102 123.973 18.4316C124.223 18.953 124.574 19.3651 125.025 19.6678C125.475 19.9538 126.01 20.0967 126.627 20.0967Z" fill="white"/>
<path d="M111.357 23.5288C109.888 23.5288 108.611 23.2344 107.526 22.6458C106.441 22.0402 105.598 21.2245 104.997 20.1985C104.396 19.1557 104.096 17.9699 104.096 16.6411C104.096 15.6151 104.263 14.6732 104.596 13.8154C104.93 12.9576 105.398 12.2175 105.999 11.5952C106.6 10.956 107.309 10.4683 108.127 10.1319C108.962 9.77866 109.871 9.60205 110.856 9.60205C111.791 9.60205 112.642 9.77025 113.41 10.1066C114.195 10.443 114.871 10.914 115.438 11.5195C116.006 12.125 116.44 12.8398 116.74 13.664C117.041 14.4882 117.174 15.388 117.141 16.3636L117.116 17.4485H106.524L105.949 15.1778H113.861L113.435 15.6572V15.1526C113.402 14.7321 113.268 14.362 113.035 14.0425C112.818 13.7061 112.525 13.4454 112.158 13.2603C111.791 13.0753 111.374 12.9828 110.906 12.9828C110.255 12.9828 109.696 13.1174 109.229 13.3865C108.778 13.6388 108.436 14.0172 108.202 14.5218C107.968 15.0096 107.852 15.6151 107.852 16.3384C107.852 17.0784 108.002 17.726 108.302 18.281C108.619 18.8193 109.07 19.2398 109.654 19.5425C110.255 19.8453 110.965 19.9966 111.783 19.9966C112.35 19.9966 112.851 19.9125 113.285 19.7443C113.736 19.5762 114.22 19.2902 114.737 18.8865L116.615 21.5609C116.098 22.015 115.547 22.385 114.963 22.671C114.378 22.9569 113.777 23.1672 113.16 23.3017C112.559 23.4531 111.958 23.5288 111.357 23.5288Z" fill="white"/>
<path d="M96.2687 23.2762V6.49854H100.275V23.2762H96.2687ZM93.915 13.4114V9.8793H102.854V13.4114H93.915Z" fill="white"/>
<path d="M85.5322 23.5296C84.3804 23.5296 83.3371 23.395 82.4023 23.1259C81.4842 22.84 80.6663 22.4363 79.9485 21.9149C79.2307 21.3766 78.5881 20.7459 78.0205 20.0227L80.5995 17.0708C81.4341 18.1977 82.2688 18.9546 83.1034 19.3415C83.9547 19.7283 84.8311 19.9217 85.7325 19.9217C86.1832 19.9217 86.5921 19.8629 86.9594 19.7451C87.3266 19.6274 87.6104 19.4592 87.8107 19.2405C88.011 19.0051 88.1112 18.7191 88.1112 18.3827C88.1112 18.1304 88.0444 17.9034 87.9108 17.7015C87.794 17.4997 87.6271 17.3231 87.4101 17.1717C87.1931 17.0203 86.9343 16.8858 86.6339 16.768C86.3334 16.6335 86.0162 16.5242 85.6824 16.4401C85.3485 16.3391 85.0063 16.255 84.6558 16.1878C83.6876 15.9691 82.8447 15.7 82.1269 15.3804C81.4091 15.0608 80.8082 14.674 80.3241 14.2199C79.8567 13.7489 79.5061 13.2191 79.2724 12.6304C79.0388 12.0249 78.9219 11.3521 78.9219 10.612C78.9219 9.8215 79.0972 9.09825 79.4477 8.44228C79.815 7.76949 80.299 7.19762 80.9 6.72667C81.5176 6.23889 82.227 5.86886 83.0283 5.61656C83.8295 5.34745 84.6641 5.21289 85.5322 5.21289C86.6839 5.21289 87.6688 5.33904 88.4867 5.59133C89.3214 5.82681 90.0308 6.17162 90.615 6.62575C91.216 7.07988 91.7251 7.62652 92.1424 8.26567L89.5133 10.8139C89.1628 10.3765 88.7789 10.0149 88.3615 9.72899C87.9609 9.44305 87.5269 9.22439 87.0595 9.07302C86.6088 8.92164 86.1414 8.84595 85.6573 8.84595C85.1566 8.84595 84.7226 8.91323 84.3553 9.04779C84.0048 9.16553 83.7294 9.34213 83.5291 9.57761C83.3287 9.79627 83.2286 10.0654 83.2286 10.385C83.2286 10.6709 83.312 10.9148 83.479 11.1166C83.6459 11.3185 83.8712 11.5035 84.155 11.6717C84.4388 11.823 84.7643 11.9576 85.1315 12.0753C85.4988 12.1763 85.8827 12.2604 86.2833 12.3276C87.2014 12.5127 88.0277 12.7565 88.7622 13.0593C89.5133 13.362 90.156 13.7321 90.6902 14.1694C91.241 14.6067 91.6583 15.1281 91.9421 15.7336C92.2426 16.3223 92.3928 17.0119 92.3928 17.8025C92.3928 19.0303 92.0923 20.0731 91.4914 20.9309C90.9072 21.7719 90.0976 22.4195 89.0626 22.8736C88.0444 23.3109 86.8676 23.5296 85.5322 23.5296Z" fill="white"/>
<path d="M70.9615 23.5288C69.4925 23.5288 68.2155 23.2344 67.1305 22.6458C66.0455 22.0402 65.2025 21.2245 64.6016 20.1985C64.0007 19.1557 63.7002 17.9699 63.7002 16.6411C63.7002 15.6151 63.8671 14.6732 64.201 13.8154C64.5348 12.9576 65.0022 12.2175 65.6031 11.5952C66.2041 10.956 66.9135 10.4683 67.7314 10.1319C68.5661 9.77866 69.4758 9.60205 70.4607 9.60205C71.3955 9.60205 72.2468 9.77025 73.0146 10.1066C73.7992 10.443 74.4752 10.914 75.0428 11.5195C75.6103 12.125 76.0443 12.8398 76.3448 13.664C76.6453 14.4882 76.7788 15.388 76.7454 16.3636L76.7204 17.4485H66.129L65.5531 15.1778H73.4653L73.0397 15.6572V15.1526C73.0063 14.7321 72.8727 14.362 72.6391 14.0425C72.4221 13.7061 72.1299 13.4454 71.7627 13.2603C71.3955 13.0753 70.9781 12.9828 70.5108 12.9828C69.8597 12.9828 69.3005 13.1174 68.8332 13.3865C68.3825 13.6388 68.0403 14.0172 67.8066 14.5218C67.5729 15.0096 67.456 15.6151 67.456 16.3384C67.456 17.0784 67.6063 17.726 67.9067 18.281C68.2239 18.8193 68.6746 19.2398 69.2588 19.5425C69.8597 19.8453 70.5692 19.9966 71.3871 19.9966C71.9547 19.9966 72.4554 19.9125 72.8894 19.7443C73.3401 19.5762 73.8242 19.2902 74.3417 18.8865L76.2196 21.5609C75.7021 22.015 75.1513 22.385 74.567 22.671C73.9828 22.9569 73.3819 23.1672 72.7642 23.3017C72.1633 23.4531 71.5624 23.5288 70.9615 23.5288Z" fill="white"/>
<path d="M54.3267 23.2764V14.4713L54.502 15.7076L47.416 5.61572H52.2485L57.6569 13.4369L55.4535 13.3612L60.336 5.61572H65.0183L58.2328 15.9851L58.6084 14.2695V23.2764H54.3267Z" fill="white"/>
<path d="M41.1279 13.2764L30.1904 25.6123L22.5635 24.6855L17.7236 16.7715L20.1787 12.6045H19.0938L10.9326 16.7715L12.958 23.5195L3.40039 22.3594L0 11.1172L22.8018 0L41.1279 13.2764Z" fill="white"/>
</svg>
