<svg width="69" height="61" viewBox="0 0 69 61" fill="none" xmlns="http://www.w3.org/2000/svg">
<path d="M53.6377 60.6768V46.7219H56.4621L56.5736 48.9332L56.0162 48.7659C56.1029 48.3571 56.3135 47.9855 56.6479 47.651C56.9824 47.3166 57.4036 47.0502 57.9115 46.852C58.4318 46.6414 58.9768 46.5361 59.5467 46.5361C60.3891 46.5361 61.1385 46.7591 61.7951 47.2051C62.4516 47.6386 62.9657 48.2395 63.3374 49.0075C63.7214 49.7632 63.9134 50.6427 63.9134 51.6461C63.9134 52.6371 63.7214 53.5167 63.3374 54.2847C62.9657 55.0528 62.4454 55.6598 61.7765 56.1057C61.1199 56.5393 60.3643 56.7561 59.5095 56.7561C58.9521 56.7561 58.4194 56.6508 57.9115 56.4402C57.4036 56.2296 56.9762 55.9447 56.6294 55.5854C56.2825 55.2262 56.0533 54.836 55.9418 54.4148L56.6294 54.1546V60.6768H53.6377ZM58.7848 54.2475C59.2308 54.2475 59.621 54.1423 59.9555 53.9317C60.2899 53.7087 60.5501 53.4052 60.7359 53.0212C60.9217 52.6371 61.0146 52.1788 61.0146 51.6461C61.0146 51.1258 60.9217 50.6737 60.7359 50.2896C60.5501 49.8932 60.2899 49.5897 59.9555 49.3791C59.6334 49.1562 59.2432 49.0447 58.7848 49.0447C58.3265 49.0447 57.9301 49.15 57.5956 49.3606C57.2611 49.5711 57.001 49.8746 56.8152 50.2711C56.6294 50.6675 56.5364 51.1258 56.5364 51.6461C56.5364 52.1788 56.6294 52.6371 56.8152 53.0212C57.001 53.4052 57.2611 53.7087 57.5956 53.9317C57.9301 54.1423 58.3265 54.2475 58.7848 54.2475Z" fill="white"/>
<path d="M47.4517 56.7752C46.3616 56.7752 45.4139 56.5584 44.6087 56.1248C43.8035 55.6789 43.1779 55.078 42.7319 54.3224C42.286 53.5543 42.063 52.681 42.063 51.7024C42.063 50.9467 42.1869 50.253 42.4346 49.6212C42.6824 48.9894 43.0292 48.4444 43.4752 47.986C43.9212 47.5153 44.4476 47.156 45.0546 46.9083C45.674 46.6481 46.3492 46.5181 47.0801 46.5181C47.7738 46.5181 48.4055 46.6419 48.9754 46.8897C49.5576 47.1375 50.0593 47.4843 50.4805 47.9303C50.9017 48.3762 51.2238 48.9027 51.4468 49.5097C51.6697 50.1167 51.7688 50.7795 51.7441 51.498L51.7255 52.297H43.8654L43.438 50.6246H49.3099L48.994 50.9777V50.606C48.9692 50.2964 48.8701 50.0238 48.6967 49.7885C48.5356 49.5407 48.3188 49.3487 48.0463 49.2124C47.7738 49.0762 47.4641 49.008 47.1172 49.008C46.6341 49.008 46.2191 49.1071 45.8722 49.3053C45.5378 49.4911 45.2838 49.7699 45.1104 50.1415C44.937 50.5008 44.8502 50.9467 44.8502 51.4794C44.8502 52.0245 44.9617 52.5014 45.1847 52.9102C45.4201 53.3066 45.7546 53.6163 46.1881 53.8393C46.6341 54.0622 47.1606 54.1737 47.7676 54.1737C48.1888 54.1737 48.5604 54.1118 48.8825 53.9879C49.217 53.864 49.5762 53.6535 49.9602 53.3561L51.3538 55.3258C50.9698 55.6603 50.561 55.9328 50.1275 56.1434C49.6939 56.354 49.2479 56.5088 48.7896 56.6079C48.3436 56.7194 47.8976 56.7752 47.4517 56.7752Z" fill="white"/>
<path d="M36.2545 56.5893V44.2324H39.2276V56.5893H36.2545ZM34.5078 49.3238V46.7224H41.1415V49.3238H34.5078Z" fill="white"/>
<path d="M28.2869 56.7755C27.4322 56.7755 26.6579 56.6764 25.9642 56.4782C25.2829 56.2676 24.6759 55.9703 24.1432 55.5863C23.6105 55.1898 23.1336 54.7253 22.7124 54.1926L24.6263 52.0186C25.2457 52.8486 25.8651 53.406 26.4845 53.6909C27.1163 53.9758 27.7666 54.1183 28.4356 54.1183C28.77 54.1183 29.0735 54.0749 29.3461 53.9882C29.6186 53.9015 29.8292 53.7776 29.9779 53.6166C30.1265 53.4432 30.2008 53.2326 30.2008 52.9848C30.2008 52.799 30.1513 52.6318 30.0522 52.4831C29.9655 52.3345 29.8416 52.2044 29.6805 52.0929C29.5195 51.9814 29.3275 51.8823 29.1045 51.7956C28.8815 51.6965 28.6462 51.616 28.3984 51.554C28.1507 51.4797 27.8967 51.4178 27.6366 51.3682C26.9181 51.2072 26.2925 51.009 25.7598 50.7736C25.2271 50.5382 24.7812 50.2533 24.4219 49.9188C24.0751 49.572 23.8149 49.1818 23.6415 48.7482C23.4681 48.3022 23.3813 47.8067 23.3813 47.2616C23.3813 46.6794 23.5114 46.1467 23.7716 45.6636C24.0441 45.1681 24.4033 44.7469 24.8493 44.4001C25.3077 44.0408 25.8341 43.7683 26.4287 43.5825C27.0234 43.3843 27.6428 43.2852 28.2869 43.2852C29.1417 43.2852 29.8726 43.3781 30.4796 43.5639C31.099 43.7373 31.6254 43.9913 32.059 44.3257C32.505 44.6602 32.8828 45.0628 33.1925 45.5335L31.2414 47.4103C30.9813 47.0882 30.6964 46.8219 30.3867 46.6113C30.0893 46.4007 29.7673 46.2397 29.4204 46.1282C29.0859 46.0167 28.7391 45.9609 28.3798 45.9609C28.0082 45.9609 27.6861 46.0105 27.4136 46.1096C27.1534 46.1963 26.949 46.3264 26.8004 46.4998C26.6517 46.6608 26.5774 46.859 26.5774 47.0944C26.5774 47.305 26.6393 47.4846 26.7632 47.6333C26.8871 47.7819 27.0543 47.9182 27.2649 48.0421C27.4755 48.1536 27.7171 48.2527 27.9896 48.3394C28.2621 48.4137 28.5471 48.4757 28.8444 48.5252C29.5257 48.6615 30.1389 48.8411 30.684 49.0641C31.2414 49.2871 31.7183 49.5596 32.1148 49.8817C32.5236 50.2038 32.8333 50.5878 33.0438 51.0337C33.2668 51.4673 33.3783 51.9752 33.3783 52.5574C33.3783 53.4617 33.1553 54.2298 32.7094 54.8616C32.2758 55.481 31.675 55.9579 30.9069 56.2924C30.1513 56.6144 29.2779 56.7755 28.2869 56.7755Z" fill="white"/>
<path d="M17.4737 56.7752C16.3835 56.7752 15.4359 56.5584 14.6307 56.1248C13.8254 55.6789 13.1999 55.078 12.7539 54.3224C12.3079 53.5543 12.085 52.681 12.085 51.7024C12.085 50.9467 12.2088 50.253 12.4566 49.6212C12.7044 48.9894 13.0512 48.4444 13.4972 47.986C13.9431 47.5153 14.4696 47.156 15.0766 46.9083C15.696 46.6481 16.3711 46.5181 17.102 46.5181C17.7957 46.5181 18.4275 46.6419 18.9974 46.8897C19.5796 47.1375 20.0813 47.4843 20.5025 47.9303C20.9237 48.3762 21.2458 48.9027 21.4687 49.5097C21.6917 50.1167 21.7908 50.7795 21.766 51.498L21.7475 52.297H13.8874L13.46 50.6246H19.3318L19.0159 50.9777V50.606C18.9912 50.2964 18.8921 50.0238 18.7186 49.7885C18.5576 49.5407 18.3408 49.3487 18.0683 49.2124C17.7957 49.0762 17.486 49.008 17.1392 49.008C16.6561 49.008 16.2411 49.1071 15.8942 49.3053C15.5597 49.4911 15.3058 49.7699 15.1324 50.1415C14.9589 50.5008 14.8722 50.9467 14.8722 51.4794C14.8722 52.0245 14.9837 52.5014 15.2067 52.9102C15.4421 53.3066 15.7765 53.6163 16.2101 53.8393C16.6561 54.0622 17.1825 54.1737 17.7896 54.1737C18.2107 54.1737 18.5824 54.1118 18.9045 53.9879C19.2389 53.864 19.5982 53.6535 19.9822 53.3561L21.3758 55.3258C20.9918 55.6603 20.583 55.9328 20.1494 56.1434C19.7159 56.354 19.2699 56.5088 18.8115 56.6079C18.3656 56.7194 17.9196 56.7752 17.4737 56.7752Z" fill="white"/>
<path d="M5.12856 56.5892V50.1042L5.25863 51.0147L0 43.582H3.58627L7.59993 49.3424L5.96473 49.2866L9.58817 43.582H13.063L8.02731 51.2191L8.30603 49.9556V56.5892H5.12856Z" fill="white"/>
<path d="M68.7583 20.9131L51.3979 40.3457L39.2925 38.8867L31.6099 26.4189L35.5083 19.8555H33.7856L20.8315 26.4189L24.0474 37.0488L8.87549 35.2207L3.479 17.5117L39.6714 0L68.7583 20.9131Z" fill="white"/>
</svg>
