<svg width="32" height="32" viewBox="0 0 32 32" fill="none" xmlns="http://www.w3.org/2000/svg">
<g clip-path="url(#clip0_2024_1170)">
<path d="M24.7867 0H7.21333C3.22933 0 0 3.22933 0 7.21333V24.7867C0 28.7707 3.22933 32 7.21333 32H24.7867C28.7707 32 32 28.7707 32 24.7867V7.21333C32 3.22933 28.7693 0 24.7867 0ZM24.3787 19.82C22.14 22.396 17.136 25.5347 15.9973 26.0147C14.8587 26.4947 15.0267 25.7093 15.0733 25.4387C15.1013 25.2787 15.2253 24.5253 15.2253 24.5253C15.2613 24.2533 15.2987 23.8307 15.1907 23.5613C15.0707 23.264 14.5987 23.1107 14.2507 23.0347C9.124 22.3573 5.328 18.7733 5.328 14.4933C5.328 9.72 10.1147 5.83467 15.9973 5.83467C21.88 5.83467 26.6667 9.71867 26.6667 14.4933C26.6653 16.4027 25.9253 18.124 24.3787 19.82Z" fill="white"/>
<path d="M21.08 13.3495V14.1349H23.1173C23.2293 14.1349 23.3213 14.2269 23.3213 14.3389V15.0962C23.3213 15.2082 23.2307 15.3002 23.1173 15.3002H21.08V16.0855H23.1173C23.2293 16.0855 23.3213 16.1775 23.3213 16.2895V17.0469C23.3213 17.1589 23.2307 17.2495 23.1173 17.2495H20.12C20.008 17.2495 19.916 17.1589 19.916 17.0469V12.3895C19.916 12.2775 20.0067 12.1855 20.12 12.1855H23.1173C23.2293 12.1855 23.3213 12.2762 23.3213 12.3895V13.1455C23.3213 13.2575 23.2307 13.3495 23.1173 13.3495H21.08Z" fill="white"/>
<path d="M12.2321 16.2895V17.0469C12.2321 17.1589 12.1415 17.2495 12.0281 17.2495H9.03079C8.91879 17.2495 8.82812 17.1589 8.82812 17.0469V12.3895C8.82812 12.2775 8.91879 12.1855 9.03079 12.1855H9.78813C9.90013 12.1855 9.99213 12.2762 9.99213 12.3895V16.0855H12.0295C12.1415 16.0855 12.2321 16.1775 12.2321 16.2895Z" fill="white"/>
<path d="M14.0375 12.3895V17.0455C14.0375 17.1575 13.9469 17.2482 13.8335 17.2482H13.0775C12.9655 17.2482 12.8735 17.1575 12.8735 17.0455V12.3895C12.8735 12.2775 12.9642 12.1855 13.0775 12.1855H13.8335C13.9455 12.1855 14.0375 12.2775 14.0375 12.3895Z" fill="white"/>
<path d="M19.188 12.3895V17.0455C19.188 17.1575 19.0974 17.2482 18.984 17.2482H18.232C18.1654 17.2482 18.1 17.2149 18.0614 17.1602L15.928 14.2802V17.0455C15.928 17.1575 15.8374 17.2482 15.724 17.2482H14.9667C14.8547 17.2482 14.7627 17.1575 14.7627 17.0455V12.3895C14.7627 12.2775 14.8534 12.1855 14.9667 12.1855H15.7187C15.7894 12.1855 15.8507 12.2229 15.892 12.2775L18.0227 15.1549V12.3895C18.0227 12.2775 18.1134 12.1855 18.2267 12.1855H18.984C19.0974 12.1855 19.188 12.2775 19.188 12.3895Z" fill="white"/>
</g>
<defs>
<clipPath id="clip0_2024_1170">
<rect width="32" height="32" fill="white"/>
</clipPath>
</defs>
</svg>
