<svg width="29" height="32" viewBox="0 0 29 32" fill="none" xmlns="http://www.w3.org/2000/svg">
<path d="M14.2848 32H14.2752C9.5008 31.968 5.8304 30.3936 3.3632 27.3216C1.1712 24.5856 0.0384 20.7808 0 16.0128V15.9904C0.0384 11.2192 1.1712 7.4176 3.3664 4.6816C5.8304 1.6064 9.504 0.032 14.2752 0H14.2848H14.2944C17.9552 0.0256 21.0176 0.9664 23.3952 2.7968C25.632 4.5184 27.2064 6.9696 28.0736 10.0864L25.3536 10.8448C23.8816 5.5648 20.1568 2.8672 14.2816 2.8256C10.4032 2.8544 7.4688 4.0736 5.5616 6.448C3.7792 8.672 2.8576 11.8848 2.8224 16C2.8576 20.1152 3.7792 23.328 5.5648 25.552C7.472 27.9296 10.4064 29.1488 14.2848 29.1744C17.7824 29.1488 20.096 28.3328 22.0192 26.448C24.2144 24.2976 24.176 21.6576 23.472 20.0512C23.0592 19.104 22.3072 18.3168 21.2928 17.7184C21.0368 19.52 20.464 20.9792 19.5808 22.08C18.4 23.5488 16.7264 24.352 14.608 24.4672C13.0048 24.5536 11.4592 24.176 10.2624 23.3984C8.8448 22.48 8.016 21.0784 7.9264 19.4464C7.84 17.8592 8.4704 16.4 9.6992 15.3376C10.8736 14.3232 12.5248 13.728 14.4768 13.616C15.9136 13.536 17.2608 13.6 18.5024 13.8048C18.336 12.816 18.0032 12.0288 17.504 11.4624C16.8192 10.6816 15.76 10.2848 14.3584 10.2752C14.3456 10.2752 14.3328 10.2752 14.32 10.2752C13.1936 10.2752 11.664 10.5856 10.6912 12.0352L8.3488 10.464C9.6544 8.5248 11.7728 7.456 14.32 7.456C14.3392 7.456 14.3584 7.456 14.3776 7.456C18.6368 7.4816 21.1744 10.0896 21.4272 14.64C21.5712 14.7008 21.7152 14.7648 21.856 14.8288C23.8432 15.7632 25.296 17.1776 26.0608 18.9216C27.1232 21.3504 27.2224 25.3088 23.9968 28.4672C21.5296 30.88 18.5376 31.9712 14.2944 32H14.2848ZM15.6224 16.4128C15.2992 16.4128 14.9728 16.4224 14.6368 16.4416C12.1888 16.5792 10.6624 17.7024 10.7488 19.2992C10.8384 20.9728 12.6848 21.7504 14.4608 21.6544C16.0928 21.568 18.2176 20.9312 18.576 16.7072C17.6736 16.512 16.6848 16.4128 15.6224 16.4128Z" fill="white"/>
</svg>
